{
    "asset" : {
        "generator" : "Khronos glTF Blender I/O v1.5.17",
        "version" : "2.0"
    },
    "scene" : 0,
    "scenes" : [
        {
            "name" : "Scene",
            "nodes" : [
                0
            ]
        }
    ],
    "nodes" : [
        {
            "mesh" : 0,
            "name" : "mech",
            "rotation" : [
                0,
                1,
                0,
                0
            ]
        }
    ],
    "meshes" : [
        {
            "name" : "mesh_51876421_material_18___6569_0.003",
            "primitives" : [
                {
                    "attributes" : {
                        "POSITION" : 0,
                        "NORMAL" : 1
                    },
                    "indices" : 2
                }
            ]
        }
    ],
    "accessors" : [
        {
            "bufferView" : 0,
            "componentType" : 5126,
            "count" : 15438,
            "max" : [
                12.015058517456055,
                27.677448272705078,
                4.624258995056152
            ],
            "min" : [
                -8.487920761108398,
                -0.5649127960205078,
                -19.027151107788086
            ],
            "type" : "VEC3"
        },
        {
            "bufferView" : 1,
            "componentType" : 5126,
            "count" : 15438,
            "type" : "VEC3"
        },
        {
            "bufferView" : 2,
            "componentType" : 5123,
            "count" : 16008,
            "type" : "SCALAR"
        }
    ],
    "bufferViews" : [
        {
            "buffer" : 0,
            "byteLength" : 185256,
            "byteOffset" : 0
        },
        {
            "buffer" : 0,
            "byteLength" : 185256,
            "byteOffset" : 185256
        },
        {
            "buffer" : 0,
            "byteLength" : 32016,
            "byteOffset" : 370512
        }
    ],
    "buffers" : [
        {
            "byteLength" : 402528,
            "uri" : "data:application/octet-stream;base64,"
        }
    ]
}
